<?xml version="1.0" encoding="UTF-8"?>
<svg id="Layer_1" data-name="Layer 1" xmlns="http://www.w3.org/2000/svg" viewBox="0 0 960 960">
  <defs>
    <style>
      .cls-1 {
        fill: #eb0029;
        stroke-width: 0px;
      }
    </style>
  </defs>
  <path class="cls-1" d="M179.79,353.78L28.02,424.07l37.82,143.91,28.78-3.53-7.91-90.49,9.45-4.21,16.32,92.5,49.19-6.04-8.74-99.88,9.36-4.16,17.95,101.76,49.75-6.12-9.57-109.48,9.46-4.21,19.62,111.29,49.19-6.04v-155.82l-118.88-29.78ZM183.35,572.05l2.5,14.17,112.81,18.81v-47.14l-115.26,14.17h-.06ZM405.37,542.52v19.41h23.92c0,3.94-1.01,7.81-2.95,11.23-2.02,3.41-5.02,6.15-8.6,7.85-4.29,1.96-8.97,2.9-13.68,2.76-5.44.15-10.8-1.35-15.36-4.3-4.46-3.1-7.91-7.45-9.9-12.51-2.48-6.32-3.66-13.08-3.49-19.87-.18-6.74,1.03-13.44,3.56-19.68,2.07-4.98,5.54-9.25,9.99-12.29,4.48-2.91,9.74-4.4,15.09-4.27,2.78-.02,5.55.34,8.24,1.09,2.39.68,4.64,1.77,6.65,3.21,1.92,1.38,3.57,3.09,4.89,5.06,1.38,2.1,2.41,4.4,3.07,6.82h26.54c-.69-5.57-2.5-10.94-5.32-15.8-2.8-4.79-6.48-9.01-10.83-12.45-4.57-3.57-9.72-6.32-15.23-8.13-5.98-1.95-12.24-2.91-18.53-2.86-7.36-.06-14.66,1.29-21.51,3.99-6.58,2.62-12.53,6.61-17.46,11.69-5.16,5.38-9.14,11.77-11.69,18.76-2.92,8.1-4.34,16.66-4.2,25.26,0,12.23,2.33,22.78,6.98,31.64,4.4,8.54,11.17,15.62,19.5,20.39,17.12,9.13,37.55,9.61,55.07,1.29,7.48-3.79,13.7-9.66,17.93-16.9,4.35-7.37,6.52-16.18,6.52-26.43v-15h-49.2ZM735.77,605.23v-115.92h79.39v21.45h-53.2v25.75h43.01v21.45h-43.01v25.82h53.32v21.45h-79.51ZM892.24,523.33c-.24-4.03-2.22-7.76-5.44-10.2-3.21-2.44-7.68-3.66-13.35-3.66-3.28-.11-6.54.41-9.62,1.54-2.32.85-4.36,2.33-5.89,4.27-1.32,1.78-2.04,3.93-2.04,6.15-.07,1.76.35,3.52,1.21,5.06.91,1.53,2.18,2.82,3.69,3.76,1.77,1.15,3.68,2.07,5.69,2.75,2.33.81,4.71,1.49,7.13,2.01l10.19,2.37c4.99,1.06,9.86,2.65,14.52,4.73,4.04,1.8,7.78,4.23,11.06,7.19,3.01,2.74,5.41,6.09,7.04,9.82,1.71,4.03,2.55,8.37,2.48,12.74.17,6.62-1.73,13.12-5.44,18.61-3.92,5.45-9.34,9.64-15.6,12.06-7.8,3.01-16.12,4.45-24.48,4.24-8.48.18-16.92-1.29-24.84-4.32-6.67-2.59-12.41-7.13-16.47-13.03-3.92-5.8-5.97-13.03-6.15-21.7h25.25c.07,6.85,4.39,12.94,10.83,15.27,3.55,1.35,7.33,2.01,11.12,1.94,3.49.08,6.95-.49,10.23-1.67,2.59-.91,4.89-2.5,6.65-4.61,1.56-1.96,2.41-4.38,2.41-6.88.02-2.24-.75-4.42-2.18-6.15-1.76-1.91-3.93-3.39-6.36-4.32-3.43-1.4-6.97-2.5-10.59-3.29l-12.4-3c-9.88-2.36-17.68-6.07-23.4-11.16-5.72-5.08-8.55-11.96-8.51-20.65-.18-6.67,1.83-13.21,5.71-18.62,4.07-5.51,9.56-9.81,15.87-12.46,7.28-3.09,15.14-4.61,23.05-4.47,7.87-.18,15.69,1.35,22.92,4.47,6.14,2.67,11.41,7,15.23,12.51,3.67,5.51,5.59,12,5.53,18.62l-25.06.08ZM717.09,605.23h-25.92v-88.12l-2.66-.03-26.18,88.15h-25.91l-25.48-88.15-3.3.03v88.12h-25.92v-115.92h44.05l22.25,77.69h2.69l22.25-77.69h44.13v115.92ZM540.91,605.23h28.07l-38.92-115.9h-35.57l-38.98,115.9h28.12l7.58-25.42h42.13l7.58,25.42ZM497.22,559.59l12.63-42.49h4.76l12.69,42.49h-30.08ZM925.27,501.57c-2.46,0-4.68-1.48-5.64-3.75-.64-1.52-.64-3.24,0-4.76.31-.73.75-1.39,1.31-1.95.56-.56,1.23-1,1.95-1.32,1.53-.62,3.24-.62,4.76,0,.73.32,1.39.76,1.95,1.32.56.56,1.01,1.22,1.32,1.95.64,1.52.64,3.24,0,4.76-.31.73-.76,1.39-1.32,1.95-.56.56-1.22,1.01-1.95,1.32-.75.32-1.56.48-2.38.48h0ZM925.27,499.89c.79,0,1.57-.2,2.26-.6.66-.37,1.21-.9,1.61-1.54.8-1.39.8-3.1,0-4.49-.41-.64-.97-1.17-1.63-1.54-1.39-.8-3.1-.8-4.49,0-.63.38-1.15.91-1.54,1.54-.82,1.38-.82,3.1,0,4.49.38.63.91,1.15,1.54,1.54.68.4,1.46.61,2.24.6ZM923.03,498.13v-5.64h2.74c.37,0,.73.07,1.06.23.3.14.55.37.72.65.18.31.27.66.26,1.01.01.36-.08.71-.28,1.01-.17.28-.43.51-.74.63-.34.15-.71.23-1.08.21h-1.84v-1.11h1.54c.2.01.4-.06.55-.18.15-.15.23-.36.22-.57.02-.21-.06-.42-.22-.57-.15-.13-.35-.19-.55-.18h-.85v4.5h-1.54ZM926.7,495.55l1.26,2.58h-1.71l-1.15-2.58h1.6ZM461.96,354.86h26.2v115.92h-26.2v-115.92ZM612.57,412.82c0,12.72-2.41,23.48-7.24,32.27-4.48,8.48-11.3,15.51-19.65,20.24-17.43,9.3-38.36,9.3-55.79,0-8.35-4.75-15.17-11.78-19.65-20.28-4.83-8.87-7.24-19.63-7.24-32.27s2.41-23.42,7.24-32.34c4.47-8.46,11.27-15.47,19.59-20.19,17.44-9.28,38.35-9.28,55.79,0,8.35,4.73,15.17,11.75,19.65,20.24,4.83,8.85,7.24,19.63,7.24,32.34M585.85,412.82c.2-6.82-.97-13.61-3.43-19.98-1.95-4.97-5.33-9.25-9.73-12.29-9.16-5.63-20.72-5.63-29.88,0-4.4,3.04-7.79,7.32-9.76,12.29-4.62,12.92-4.62,27.04,0,39.95,1.96,4.98,5.35,9.26,9.76,12.29,9.17,5.63,20.72,5.63,29.89,0,4.4-3.03,7.79-7.31,9.73-12.29,2.46-6.36,3.62-13.16,3.43-19.98M406.9,430.37l13.46,40.41h28.75l-14.96-43.53h-20.33l-1.21-3.75c3.87-.75,10.5-1.92,16.36-5.92,8.35-5.68,13.37-15.09,13.45-25.18.18-6.87-1.56-13.65-5.01-19.59-3.37-5.75-8.38-10.37-14.38-13.28-7.04-3.26-14.74-4.84-22.49-4.61h-46.76v115.86h26.22v-40.41h26.92ZM406.41,406.38c-3.57,1.31-7.36,1.93-11.16,1.81h-15.27v-32.05h15.23c3.8-.11,7.59.54,11.14,1.91,2.81,1.12,5.18,3.11,6.76,5.68,1.61,2.6,2.41,5.61,2.3,8.67.13,3.01-.67,5.98-2.27,8.53-1.59,2.5-3.95,4.42-6.73,5.45M615.04,354.86v21.51h45.02l1.23,3.76c-3.81.74-10.25,1.88-16.03,5.69v84.99h25.92v-94.5h30.15v-21.52l-86.29.06Z"/>
</svg>